<svg xmlns="http://www.w3.org/2000/svg" viewBox="0 0 841.9 595.3">
<svg width="93" height="100" viewBox="0 0 93 100" fill="none" xmlns="http://www.w3.org/2000/svg">
<path fill-rule="evenodd" clip-rule="evenodd" d="M36.4349 5.15194C25.4546 -2.18829 14.3394 0.627309 7.42019 7.61815C0.637155 14.4714 -2.34387 25.6108 2.96378 35.0241C7.79119 43.5856 19.3952 56.6113 29.5627 67.3068C34.6896 72.7 39.5226 77.5735 43.0731 81.0981C44.8488 82.8608 46.3048 84.2872 47.3177 85.2737C47.8242 85.767 48.22 86.1504 48.4896 86.4109C48.6245 86.5412 48.7278 86.6407 48.7976 86.708L48.8771 86.7844L48.8975 86.804L48.9028 86.8092L48.9043 86.8105C48.9046 86.8109 48.9049 86.8111 50.6355 85.007L48.9049 86.8111L49.6073 87.485L50.5805 87.5064L77.8923 88.1081L88.395 99.6557L92.1134 96.3132L81.8302 84.7378L83.037 58.5562L83.0752 57.7268L82.6097 57.0394L80.5396 58.4411C82.6097 57.0394 82.6094 57.039 82.6091 57.0385L82.608 57.0368L82.6039 57.0308L82.5888 57.0086L82.5309 56.9235C82.4801 56.849 82.4051 56.7392 82.3068 56.5961C82.1104 56.31 81.8209 55.8905 81.4463 55.3529C80.697 54.278 79.6066 52.7306 78.237 50.8337C75.4987 47.0411 71.6397 41.8447 67.1567 36.2296C58.2548 25.0801 46.6711 11.9947 36.4349 5.15194ZM73.2506 83.0046L51.6683 82.5291C51.4348 82.303 51.1459 82.0225 50.8063 81.6918C49.8033 80.715 48.3587 79.2998 46.5956 77.5496C44.9938 75.9594 43.1298 74.0935 41.096 72.0294L57.8964 65.8829L59.72 67.9403L59.6267 68.0252L73.2506 83.0046ZM54.3329 61.8625L23.1645 26.6982L9.61086 12.6605C5.10455 18.2485 3.67592 26.1069 7.31915 32.5683C11.788 40.494 22.9311 53.0738 33.1865 63.8618C34.5734 65.3207 35.9388 66.7415 37.263 68.1076L54.3329 61.8625ZM13.5 9.49006V8.98527C18.8436 5.18964 26.1416 4.28527 33.6562 9.30869C42.1411 14.9808 51.9263 25.5354 60.2569 35.6571L58.852 59.423L26.8709 23.3417L26.8355 23.3019L26.7985 23.2635L13.5 9.49006ZM77.0718 79.3814L63.5787 64.1929L64.9225 41.462C68.6306 46.1815 71.8265 50.4965 74.1832 53.7605C75.5348 55.6326 76.6091 57.1572 77.3444 58.212C77.6091 58.5919 77.8299 58.9108 78.0037 59.1629L77.0718 79.3814Z" fill="black"/>
</svg>

  
</svg>